<?xml version="1.0" encoding="utf-8"?>
<svg version="1.1" xmlns="http://www.w3.org/2000/svg" xmlns:xlink="http://www.w3.org/1999/xlink"
	viewBox="0 0 2533.2 2533.2" xml:space="preserve">
	<path fill="#332219" d="M2023.36,465.53v133.49v398.96v537.49c0,417.15-339.38,756.53-756.54,756.53c-0.08,0-0.15,0-0.23,0
		s-0.15,0-0.23,0c-417.16,0-756.54-339.38-756.54-756.53V997.98V599.02V465.53l0.46,0v-0.82l756.3,0l756.3,0v0.82L2023.36,465.53z"/>
	<polygon fill="#8C6C50" points="1921.86,566.2 611.79,566.2 611.79,566.2 611.79,654.52 611.79,654.52 1921.86,654.52 1921.86,654.52 1921.86,566.2"/>
	<path fill="#02B0B0" d="M1787.32,834.26h-87.88c-0.12,0-0.22,0.1-0.22,0.22v696.24c0,243.85-199.54,443.08-443.31,437.01
		c-203.23-5.06-372.09-151.03-412.36-343.67c0.09-0.11,0.13-0.16,0.22-0.27h109.4c0.12,0,0.22-0.1,0.22-0.22v-87.88
		c0-0.12-0.1-0.22-0.22-0.22H769.39h-23.06c-0.09,0.09-0.14,0.14-0.22,0.22c0.12,287.02,233.67,520.49,520.72,520.49
		c286.26,0,519.28-232.19,520.68-518.13h0.03V834.48C1787.54,834.36,1787.44,834.26,1787.32,834.26z"/>
	<path fill="#E8E2DA" d="M699.65,896.48h-88.32c0,0,0,0,0,0V700.52h0.46h87.86h455.86h88.32c0,0,0,0,0,0v88.32v746.63v88.32
		c0,0,0,0,0,0h-88.32h-107.64c0,0,0,0,0,0v-88.32l0,0h107.64c0,0,0,0,0,0V788.84l0,0H699.65c0,0,0,0,0,0L699.65,896.48
		C699.65,896.48,699.65,896.48,699.65,896.48z M1921.86,700.73v-0.21h-0.21h-87.88h-455.63h-88.32v830.55v88.32c0,0,0,0,0,0h88.32
		h107.64c0,0,0,0,0,0v-88.32c0,0,0,0,0,0h-107.64c0,0,0,0,0,0V788.84c0,0,0,0,0,0h455.4c0,0,0,0,0,0l-0.01,746.63
		c0,312.49-254.23,566.72-566.72,566.72c-312.42,0-566.6-254.11-566.72-566.5c-0.09-0.09-0.13-0.13-0.22-0.22h-87.88
		c-0.09,0.09-0.14,0.14-0.22,0.22c0.12,361.08,293.92,654.81,655.03,654.81c361.19,0,655.04-293.85,655.04-655.04l0.01-834.73
		C1921.87,700.74,1921.86,700.74,1921.86,700.73z"/>
</svg>
