<?xml version="1.0" encoding="utf-8"?>
<!-- Generator: Adobe Adobe Illustrator 24.2.0, SVG Export Plug-In . SVG Version: 6.00 Build 0)  -->
<svg version="1.1" xmlns="http://www.w3.org/2000/svg" xmlns:xlink="http://www.w3.org/1999/xlink" x="0px" y="0px"
	 width="2258.38px" height="880px" viewBox="0 0 2258.38 880" style="enable-background:new 0 0 2258.38 880;" xml:space="preserve"
	>
<style type="text/css">
	.st0{display:none;}
	.st1{display:inline;}
	.st2{fill:#FFFFFF;}
	.st3{fill:#FFFFFF;stroke:#FFFFFF;stroke-width:5;stroke-miterlimit:10;}
	.st4{display:inline;opacity:0.3294;fill:#2DED47;}
	.st5{fill:#332219;}
	.st6{fill:#02B0B0;}
	.st7{fill:#E8E2DA;}
	.st8{fill:#8C6C50;}
</style>
<g id="Layer_2" class="st0">
</g>
<g id="Layer_2_copy" class="st0">
</g>
<g id="Layer_3" class="st0">
</g>
<g id="Layer_4" class="st0">
</g>
<g id="Layer_6" class="st0">
</g>
<g id="Layer_7" class="st0">
</g>
<g id="Layer_8_copy_4" class="st0">
</g>
<g id="Layer_8_copy_2" class="st0">
</g>
<g id="Layer_9" class="st0">
</g>
<g id="Layer_14" class="st0">
</g>
<g id="Layer_14_copy" class="st0">
</g>
<g id="Layer_8_copy_3" class="st0">
</g>
<g id="Layer_8_copy" class="st0">
</g>
<g id="Layer_8" class="st0">
</g>
<g id="Layer_8_copy_5">
	<g>
		<g>
			<path class="st5" d="M1410.31,274.16V150.5v-49.59l-0.17,0v-0.3h-280.95H848.24v0.3l-0.17,0v49.59v123.66H319.94V484.8h528.13
				v13.56c0,154.96,126.07,281.03,281.03,281.03c0.03,0,0.06,0,0.09,0s0.06,0,0.09,0c154.96,0,281.03-126.07,281.03-281.03V484.8
				h528.13V274.16H1410.31z"/>
			<polygon class="st6" points="885.95,138.31 885.95,138.31 1372.6,138.31 1372.6,138.31 1372.6,171.11 1372.6,171.12 
				885.95,171.12 885.95,171.11 			"/>
			<path class="st6" d="M935.92,498.36h8.57h68.27c0.05,0,0.08,0.04,0.08,0.08v32.64c0,0.05-0.04,0.08-0.08,0.08h-40.64
				c-0.03,0.04-0.05,0.06-0.08,0.1c14.96,71.56,77.69,125.79,153.18,127.67c90.55,2.25,164.68-71.76,164.68-162.34V237.97
				c0-0.05,0.04-0.08,0.08-0.08h32.64c0.05,0,0.08,0.04,0.08,0.08v261.36h-0.01c-0.52,106.22-87.08,192.47-193.42,192.47
				c-106.63,0-193.39-86.73-193.43-193.35C935.87,498.42,935.89,498.4,935.92,498.36z"/>
			<polygon class="st7" points="885.77,261 885.77,188.2 885.95,188.2 918.58,188.2 1087.92,188.2 1120.73,188.2 1120.73,188.2 
				1120.73,221.01 1120.73,498.36 1120.73,531.17 1120.73,531.17 1087.92,531.17 1047.94,531.17 1047.94,531.17 1047.94,498.36 
				1047.94,498.36 1087.92,498.36 1087.92,498.36 1087.92,221.01 1087.92,221.01 918.58,221.01 918.58,221.01 918.58,261 
				918.58,261 885.78,261 			"/>
			<path class="st7" d="M1372.6,498.36c0,134.17-109.16,243.33-243.33,243.33c-134.14,0-243.28-109.11-243.33-243.25
				c0.03-0.03,0.05-0.05,0.08-0.08h32.64c0.03,0.03,0.05,0.05,0.08,0.08c0.04,116.04,94.47,210.44,210.52,210.44
				c116.08,0,210.52-94.44,210.52-210.52l0-277.35c0,0,0,0,0,0h-169.17h0v275.72c0,0,0,0,0,0h39.98h0v32.81h0h-39.99h-32.81h0
				v-32.81V188.2h32.81h169.25h32.64h0.08v0.08c0,0,0,0,0,0L1372.6,498.36z"/>
		</g>
		<path class="st7" d="M943,372.5c0.75-0.56,1.5-1.22,2.25-1.97c3.28-3.28,5.79-7.06,7.53-11.32c1.73-4.27,2.6-8.74,2.6-13.43
			c0-4.69-0.87-9.14-2.6-13.37c-1.74-4.22-4.24-7.97-7.53-11.25c-3.28-3.28-7.06-5.81-11.32-7.6c-4.27-1.78-8.75-2.67-13.44-2.67
			h-21.81v140.68h19.7v-70.9h2.11c0.75,0,1.43,0,2.04,0c0.61,0,1.24-0.05,1.9-0.14l15.9,71.04h19.27l-18.85-77.37
			C941.49,373.63,942.24,373.06,943,372.5z M934.49,351.68c-0.8,1.88-1.88,3.49-3.24,4.85c-1.36,1.36-2.95,2.44-4.78,3.24
			c-1.83,0.8-3.82,1.2-5.98,1.2h-2.11v-30.39h2.11c2.16,0,4.15,0.4,5.98,1.2c1.83,0.8,3.42,1.9,4.78,3.31
			c1.36,1.41,2.44,3.02,3.24,4.85c0.8,1.83,1.2,3.78,1.2,5.84C935.68,347.84,935.28,349.81,934.49,351.68z M488.85,311.5
			l-42.77,139.45h21.1l6.61-23.51h32.07l6.75,23.51h21.1L489.84,311.5H488.85z M478.58,410.89l11.25-39.65l11.4,39.65H478.58z
			 M1430.77,310.89h19.7v98.76c0,12.94-3.42,23.07-10.27,30.39c-7.41,7.69-18.01,11.54-31.79,11.54v-19.69
			c8.06,0,13.81-1.69,17.23-5.06c3.42-3.38,5.13-9.1,5.13-17.16V310.89z M598.72,310.89h20.82l-26.17,74.14v66.54h-19.7v-66.54
			l-25.04-74.14h20.68l14.35,50.08L598.72,310.89z M673.85,431.87h28.84v19.69h-48.53V310.89h19.7V431.87z M848.15,329.38
			c-3.38-3.28-6.99-6.24-10.83-8.86c-3.85-2.62-7.97-4.88-12.38-6.75c-9.1-3.84-18.62-5.77-28.56-5.77
			c-9.85,0-19.32,1.92-28.42,5.77c-8.63,3.66-16.41,8.86-23.35,15.62c-6.66,6.66-11.87,14.44-15.62,23.35
			c-1.97,4.5-3.42,9.12-4.36,13.86c-0.94,4.74-1.41,9.59-1.41,14.56c0,10.22,1.92,19.74,5.77,28.56
			c3.75,8.91,8.96,16.69,15.62,23.35c6.94,6.75,14.72,11.96,23.35,15.62c9.1,3.84,18.57,5.77,28.42,5.77
			c9.94,0,19.46-1.92,28.56-5.77c4.41-1.87,8.53-4.13,12.38-6.75c3.84-2.62,7.46-5.58,10.83-8.86c6.84-6.85,12.1-14.63,15.76-23.35
			c3.84-9.1,5.77-18.62,5.77-28.56c0-9.85-1.92-19.32-5.77-28.42C860.24,344.01,854.99,336.23,848.15,329.38z M845.75,401.98
			c-2.81,6.47-6.64,12.15-11.46,17.02c-4.83,4.88-10.5,8.72-17.02,11.54c-6.52,2.81-13.48,4.22-20.89,4.22
			c-7.41,0-14.35-1.41-20.82-4.22c-6.47-2.81-12.12-6.66-16.95-11.54c-4.83-4.87-8.65-10.55-11.46-17.02
			c-2.81-6.47-4.22-13.41-4.22-20.82c0-7.32,1.41-14.23,4.22-20.75c2.81-6.52,6.63-12.19,11.46-17.02
			c4.83-4.83,10.48-8.65,16.95-11.47s13.41-4.22,20.82-4.22c7.41,0,14.37,1.41,20.89,4.22c6.52,2.81,12.19,6.64,17.02,11.47
			c4.83,4.83,8.65,10.5,11.46,17.02c2.81,6.52,4.22,13.44,4.22,20.75C849.97,388.56,848.57,395.5,845.75,401.98z M365.06,310.89
			h63.31v19.69h-21.81v120.98h-19.7V330.58h-21.81V310.89z M1744.34,310.89h53.32v19.69h-33.62v26.31h23.78v16.88h-23.78v58.1h33.62
			v19.69h-53.32V310.89z M1893.32,415.48c0,2.7-0.19,5.29-0.56,7.77c-0.38,2.48-0.94,4.8-1.69,6.96c-1.5,4.42-3.8,8.33-6.89,11.76
			c-3.09,3.24-6.75,5.68-10.97,7.3c-4.03,1.53-8.35,2.3-12.94,2.3c-3.66,0-7.27-0.67-10.83-2.03c-3.85-1.53-7.03-3.65-9.57-6.35
			c-1.03-0.99-2.09-2.21-3.17-3.65c-1.08-1.44-2.04-3.15-2.89-5.14c-0.84-1.98-1.55-4.19-2.11-6.62c-0.56-2.43-0.84-5.18-0.84-8.24
			v-0.27h19.69v0.27c0,2.43,0.28,4.48,0.84,6.15c0.56,1.67,1.31,3.02,2.25,4.05c0.94,1.04,1.97,1.78,3.1,2.23
			c1.12,0.45,2.3,0.68,3.52,0.68c4.12,0,7.22-1.13,9.29-3.38c2.72-2.88,4.08-7.48,4.08-13.78c0-3.24-0.56-6.35-1.69-9.32
			c-1.13-2.97-2.63-5.86-4.5-8.65c-1.88-2.79-4.03-5.54-6.47-8.24c-2.44-2.7-4.97-5.45-7.6-8.24c-2.63-2.79-5.23-5.63-7.81-8.51
			c-2.58-2.88-4.9-5.9-6.96-9.05c-5.16-7.66-7.74-15.31-7.74-22.97c0-3.69,0.61-7.23,1.83-10.61c1.22-3.38,2.95-6.42,5.21-9.12
			c2.72-3.15,6.05-5.58,9.99-7.3c3.94-1.71,8.21-2.57,12.8-2.57c4.31,0,8.44,0.95,12.38,2.84c3.66,1.8,6.84,4.32,9.57,7.57
			c2.53,3.06,4.5,6.67,5.91,10.81c1.31,4.05,1.97,8.29,1.97,12.7h-19.69c0-4.32-0.96-7.91-2.88-10.74
			c-1.92-2.84-4.34-4.26-7.25-4.26c-3.28,0-5.81,0.99-7.6,2.97c-0.75,0.99-1.36,2.16-1.83,3.51c-0.47,1.35-0.7,2.75-0.7,4.19
			c0,2.34,0.47,4.64,1.41,6.89c0.94,2.25,2.2,4.53,3.8,6.82c1.59,2.3,3.45,4.62,5.56,6.96c2.11,2.34,4.34,4.73,6.68,7.16
			c2.91,3.15,5.79,6.33,8.65,9.53c2.86,3.2,5.51,6.69,7.95,10.47C1890.41,397.24,1893.32,406.29,1893.32,415.48z M1652.9,376.03
			l51.21-65.14v140.68h-19.69v-83.85l-31.51,40.06l-31.51-40.06v83.85h-19.69V310.89L1652.9,376.03z M1522.21,310.89l-42.77,140.68
			h21.1l6.61-23.72h32.07l6.75,23.72h21.1l-43.89-140.68H1522.21z M1511.94,411.15l11.25-40l11.39,40H1511.94z"/>
		<g class="st0">
			<g class="st1">
				<path class="st8" d="M478.88,540.48c1.44,1.63,2.88,3.27,4.3,4.92c1.42,1.65,2.74,3.46,3.95,5.41
					c2.89,4.61,4.33,9.29,4.33,14.04c0,1.4-0.09,2.74-0.28,4.02c-0.19,1.28-0.47,2.48-0.84,3.6c-0.75,2.28-1.89,4.31-3.42,6.08
					c-1.54,1.68-3.35,2.93-5.45,3.77c-2,0.79-4.15,1.19-6.43,1.19c-1.82,0-3.61-0.35-5.38-1.05c-1.91-0.79-3.49-1.89-4.75-3.28
					c-0.51-0.51-1.04-1.14-1.57-1.89c-0.54-0.74-1.01-1.63-1.43-2.65c-0.42-1.02-0.77-2.17-1.05-3.42
					c-0.28-1.26-0.42-2.68-0.42-4.26v-0.14h9.78v0.14c0,1.26,0.14,2.32,0.42,3.18c0.28,0.86,0.65,1.56,1.12,2.1
					c0.46,0.54,0.98,0.92,1.54,1.15c0.56,0.23,1.14,0.35,1.75,0.35c2.05,0,3.58-0.58,4.61-1.75c1.35-1.49,2.03-3.86,2.03-7.13
					c0-1.68-0.28-3.28-0.84-4.82c-0.56-1.54-1.3-3.03-2.24-4.47c-0.93-1.44-2-2.86-3.21-4.26c-1.21-1.4-2.47-2.82-3.77-4.26
					c-1.3-1.44-2.6-2.91-3.88-4.4c-1.28-1.49-2.43-3.05-3.46-4.68c-2.56-3.96-3.84-7.92-3.84-11.88c0-1.91,0.3-3.74,0.91-5.48
					c0.6-1.75,1.47-3.32,2.58-4.72c1.35-1.63,3-2.89,4.96-3.77c1.96-0.88,4.07-1.33,6.36-1.33c2.14,0,4.19,0.49,6.15,1.47
					c1.82,0.93,3.4,2.24,4.75,3.91c1.26,1.58,2.24,3.45,2.93,5.59c0.65,2.1,0.98,4.29,0.98,6.57h-9.78c0-2.24-0.48-4.09-1.43-5.55
					c-0.96-1.47-2.15-2.2-3.6-2.2c-1.63,0-2.89,0.51-3.77,1.54c-0.37,0.51-0.67,1.12-0.91,1.82c-0.23,0.7-0.35,1.42-0.35,2.17
					c0,1.21,0.23,2.4,0.7,3.56c0.46,1.16,1.09,2.34,1.89,3.53c0.79,1.19,1.71,2.39,2.76,3.6
					C476.61,537.99,477.71,539.23,478.88,540.48z"/>
				<path class="st8" d="M521.91,512.19h31.44v9.78h-10.83v60.08h-9.78v-60.08h-10.83V512.19z"/>
				<path class="st8" d="M611.81,541.81c-0.37,0.37-0.74,0.7-1.12,0.98c-0.37,0.28-0.75,0.56-1.12,0.84l9.36,38.42h-9.57
					l-7.89-35.28c-0.33,0.05-0.64,0.07-0.94,0.07c-0.3,0-0.64,0-1.01,0h-1.05v35.21h-9.78v-69.86h10.83c2.33,0,4.55,0.44,6.67,1.33
					c2.12,0.89,3.99,2.14,5.62,3.77c1.63,1.63,2.88,3.49,3.74,5.59c0.86,2.1,1.29,4.31,1.29,6.64c0,2.33-0.43,4.55-1.29,6.67
					C614.69,538.31,613.44,540.18,611.81,541.81z M599.52,537.06c1.07,0,2.06-0.2,2.97-0.59c0.91-0.4,1.7-0.93,2.37-1.61
					c0.67-0.67,1.21-1.48,1.61-2.41c0.4-0.93,0.59-1.91,0.59-2.93c0-1.02-0.2-1.99-0.59-2.9c-0.4-0.91-0.93-1.71-1.61-2.41
					c-0.68-0.7-1.47-1.25-2.37-1.64c-0.91-0.4-1.9-0.59-2.97-0.59h-1.05v15.09H599.52z"/>
				<path class="st8" d="M653.59,512.19h9.78v69.86h-9.78V512.19z"/>
				<path class="st8" d="M722.67,512.19h9.78v69.86h-9.78v-29.2l-12.78-15.16v44.36h-9.78V511l22.56,26.68V512.19z"/>
				<path class="st8" d="M785.61,537.69h18.93v45.83h-7.33c-4.43,0-8.55-0.98-12.36-2.93c-3.82-1.96-7.13-4.8-9.92-8.52
					c-2.47-3.31-4.43-7.15-5.87-11.53c-1.3-4.19-1.96-8.64-1.96-13.34c0-4.75,0.65-9.22,1.96-13.41c1.44-4.38,3.4-8.22,5.87-11.53
					c2.79-3.73,6.1-6.57,9.92-8.52c3.82-1.96,7.94-2.93,12.36-2.93v9.78c-1.82,0-3.47,0.23-4.96,0.7c-1.49,0.47-2.83,1.06-4.02,1.78
					c-1.19,0.72-2.25,1.54-3.18,2.44c-0.93,0.91-1.72,1.81-2.37,2.69c-1.86,2.47-3.3,5.34-4.3,8.63c-1,3.28-1.5,6.74-1.5,10.37
					c0,3.59,0.5,7.02,1.5,10.3c1,3.28,2.43,6.16,4.3,8.63c0.6,0.75,1.29,1.53,2.06,2.34c0.77,0.82,1.65,1.56,2.65,2.24
					c1,0.68,2.12,1.27,3.35,1.78c1.23,0.51,2.57,0.89,4.02,1.12v-27.52h-9.15V537.69z"/>
			</g>
			<g class="st1">
				<path class="st8" d="M1488.34,539.77c2.24,2.24,3.94,4.73,5.1,7.47c1.21,2.98,1.82,6.03,1.82,9.15c0,3.17-0.61,6.24-1.82,9.22
					c-1.16,2.75-2.86,5.24-5.1,7.47c-2.14,2.14-4.63,3.82-7.47,5.03c-2.93,1.26-5.98,1.89-9.15,1.89h-14.74v-69.86h12.3
					c2.19,0,4.26,0.41,6.22,1.22c1.96,0.82,3.7,1.99,5.24,3.53c1.54,1.54,2.71,3.28,3.53,5.24c0.81,1.96,1.22,4.03,1.22,6.22
					c0,3.35-0.93,6.43-2.79,9.22c1.07,0.51,2.07,1.13,3,1.85C1486.62,538.15,1487.51,538.93,1488.34,539.77z M1466.76,532.85h2.52
					c0.88,0,1.72-0.17,2.51-0.52c0.79-0.35,1.48-0.81,2.06-1.4c0.58-0.58,1.04-1.27,1.36-2.06c0.32-0.79,0.49-1.63,0.49-2.51
					c0-0.88-0.16-1.72-0.49-2.51c-0.33-0.79-0.78-1.48-1.36-2.06c-0.58-0.58-1.27-1.04-2.06-1.36c-0.79-0.33-1.63-0.49-2.51-0.49
					h-2.52V532.85z M1471.72,570.22c1.91,0,3.7-0.36,5.38-1.08c1.68-0.72,3.13-1.71,4.37-2.97c1.23-1.26,2.21-2.72,2.93-4.4
					c0.72-1.68,1.08-3.47,1.08-5.38c0-1.91-0.36-3.69-1.08-5.34c-0.72-1.65-1.7-3.11-2.93-4.37c-1.23-1.26-2.69-2.25-4.37-2.97
					c-1.68-0.72-3.47-1.08-5.38-1.08h-4.96v27.59H1471.72z"/>
				<path class="st8" d="M1596.43,580.6h-10.48l-3.35-12.02h-15.93l-3.28,12.02h-10.48l21.24-71.25h0.49L1596.43,580.6z
					 M1580.29,560.13l-5.66-20.26l-5.59,20.26H1580.29z"/>
				<path class="st8" d="M1676.64,510.74h9.78v69.86h-9.78v-29.2l-12.78-15.16v44.36h-9.78v-71.04l22.56,26.68V510.74z"/>
				<path class="st8" d="M1771.73,521.9c1.49,1.58,2.8,3.31,3.95,5.17c1.14,1.86,2.11,3.84,2.9,5.94c1.63,4.38,2.44,9.08,2.44,14.11
					c0,5.08-0.82,9.8-2.44,14.18c-0.79,2.1-1.76,4.08-2.9,5.94c-1.14,1.86-2.46,3.59-3.95,5.17c-2.93,3.17-6.36,5.58-10.27,7.23
					c-3.91,1.65-8.08,2.48-12.5,2.48h-4.89v-69.93h4.89c4.42,0,8.59,0.83,12.5,2.48C1765.38,516.32,1768.8,518.73,1771.73,521.9z
					 M1753.85,571.85c2.61-0.56,4.98-1.56,7.13-3c2.14-1.44,3.97-3.24,5.48-5.38c1.51-2.14,2.69-4.6,3.53-7.37
					c0.84-2.77,1.26-5.76,1.26-8.98s-0.42-6.19-1.26-8.94c-0.84-2.75-2.01-5.19-3.53-7.33c-1.51-2.14-3.34-3.93-5.48-5.38
					c-2.14-1.44-4.52-2.44-7.13-3V571.85z"/>
			</g>
		</g>
	</g>
</g>
<g id="Layer_8_copy_6">
</g>
<g id="Layer_16">
</g>
</svg>
